<svg transform="scale(1)" id="_0470_artificial_intelligence_2" data-name="0470_artificial_intelligence_2" xmlns="http://www.w3.org/2000/svg" viewBox="0 0 500 500" class="show_show__wrapper__graphic__5Waiy "><title>React</title><defs><style>.cls-1{fill:#08ad2cfff;}.cls-2{fill:#000000;}.cls-3{fill:#08ad2c;}.cls-4{fill:#68e1fd;}</style></defs><g id="Back_Screens" data-name="Back Screens"><path class="cls-1" d="M318.11,155.83s5.81-4,28.14,14.74,23.22,35.73,23.22,35.73V132.16S357.86,100,320.34,87.5Z"></path><path class="cls-2" d="M369.47,207a.69.69,0,0,1-.69-.66c0-.17-1.18-16.92-23-35.23-21.32-17.91-27.25-14.72-27.31-14.69a.73.73,0,0,1-.73,0,.7.7,0,0,1-.35-.62l2.23-68.34a.7.7,0,0,1,.92-.64C358,99.3,370,131.6,370.13,131.92a.67.67,0,0,1,0,.24V206.3a.7.7,0,0,1-.68.7ZM320,154.74c3.41,0,11.11,2.2,26.7,15.29,14.28,12,19.88,23.2,22.07,29.89V132.29C368,130.23,356,100.55,321,88.46l-2.17,66.38A6.26,6.26,0,0,1,320,154.74Z"></path><path class="cls-1" d="M140.67,181V115s35.49-13.93,80-10.78v63.35S171.67,168.9,140.67,181Z"></path><path class="cls-2" d="M140.67,181.73a.72.72,0,0,1-.4-.12.7.7,0,0,1-.3-.58V115a.7.7,0,0,1,.44-.65c.36-.14,36.16-13.94,80.29-10.83a.71.71,0,0,1,.65.7v63.35a.7.7,0,0,1-.68.7c-.49,0-49.22,1.49-79.75,13.44A.73.73,0,0,1,140.67,181.73Zm.7-66.26V180c28.8-10.93,72.6-12.91,78.58-13.13v-62C179.08,102.12,145.58,113.91,141.37,115.47Z"></path><path class="cls-1" d="M109.93,217.75s-23.81,9.88-32.8,39.09V198.43s-.45-28.31,32.8-46.28Z"></path><path class="cls-2" d="M77.13,257.54H77a.69.69,0,0,1-.6-.69V198.43c0-.28-.07-28.93,33.17-46.9a.7.7,0,0,1,1,.62v65.6a.69.69,0,0,1-.43.64c-.23.1-23.62,10.12-32.4,38.66A.71.71,0,0,1,77.13,257.54Zm32.1-104.21c-31.42,17.57-31.4,44.81-31.4,45.09v54.2c9.06-24.08,28.28-33.87,31.4-35.32Zm.7,64.42h0Z"></path><path class="cls-3" d="M77.13,198.43s5.84,25.4,28.31,33.82v68.33S79.83,282.9,77.13,256.84Z"></path><path class="cls-2" d="M105.44,301.28a.72.72,0,0,1-.4-.12c-.26-.18-25.91-18.17-28.61-44.25V198.43a.7.7,0,0,1,.62-.7.7.7,0,0,1,.76.54c.06.25,6,25.14,27.87,33.32a.7.7,0,0,1,.46.66v68.33a.71.71,0,0,1-.38.62A.61.61,0,0,1,105.44,301.28ZM77.83,203v53.87c2.31,22.29,22,38.62,26.91,42.36V232.73C88.21,226.31,80.64,210.65,77.83,203Z"></path></g><g id="Character"><path class="cls-3" d="M262.08,229.81s27.05,91.39,38,96,27.76-7.7,29.19-15.5-20.62-98.17-20.62-98.17Z"></path><path class="cls-2" d="M305.34,327.49a14.22,14.22,0,0,1-5.54-1.07c-4.73-2-12.63-18.84-23.49-50.11-8-23.17-14.84-46.07-14.91-46.3a.71.71,0,0,1,.43-.85l46.56-17.7a.71.71,0,0,1,.57,0,.72.72,0,0,1,.36.46c.9,3.69,22.06,90.6,20.63,98.46-.81,4.41-6.05,10-12.76,13.67A26.15,26.15,0,0,1,305.34,327.49Zm-42.41-97.26c1.14,3.83,7.41,24.62,14.7,45.62,14.06,40.5,20.26,48.26,22.71,49.28,4.29,1.8,10.19,1,16.18-2.28,6.26-3.4,11.33-8.73,12.05-12.69,1.1-6-12.77-65.69-20.42-97.11Z"></path><path class="cls-3" d="M308.72,306c-1.14-29.63,44.91-70.35,44.91-70.35l25.25,16s-18.74,53.42-37.18,71.47C332.66,332,309.43,324.19,308.72,306Z"></path><path class="cls-2" d="M331.53,327.49a24,24,0,0,1-8.83-1.77c-6.83-2.72-14.28-9.32-14.68-19.67h0c-.48-12.46,7-28.19,22.19-46.75a233.59,233.59,0,0,1,23-24.15.71.71,0,0,1,.84-.07l25.24,16a.69.69,0,0,1,.29.82c-.19.54-19,53.78-37.35,71.74A15.06,15.06,0,0,1,331.53,327.49ZM309.42,306c.38,9.68,7.37,15.86,13.8,18.42,6.86,2.73,14.09,2,18-1.8C358.36,305.84,376,257.53,378,251.94L353.7,236.55c-4.45,4-45.34,41.94-44.28,69.45Z"></path><path class="cls-1" d="M328.71,322.15a.71.71,0,0,1-.41-.13.7.7,0,0,1-.16-1c.36-.51,36.38-51.2,43-80.19a.7.7,0,1,1,1.36.31c-6.68,29.26-42.86,80.18-43.22,80.69A.69.69,0,0,1,328.71,322.15Z"></path><circle class="cls-2" cx="271.35" cy="211.6" r="37.35"></circle><path class="cls-2" d="M271.35,249.65a38.06,38.06,0,1,1,38-38.06A38.1,38.1,0,0,1,271.35,249.65Zm0-74.71A36.66,36.66,0,1,0,308,211.59,36.7,36.7,0,0,0,271.35,174.94Z"></path><path class="cls-3" d="M218.38,184.13s-52.88,15.29-63.21,42.24,23,163.75,23,163.75,57.26,30.35,114.77-1.55c0,0,16.18-115.92,7.64-145.13s-28.15-57.74-40.44-62S218.38,184.13,218.38,184.13Z"></path><path class="cls-2" d="M236.11,403.77c-33.1,0-57.87-12.83-58.25-13a.66.66,0,0,1-.35-.45c-.09-.34-8.43-34.65-15.4-71.81-9.37-50-11.93-81.06-7.6-92.36s16.41-22,35.83-31.61a189,189,0,0,1,27.84-11h0c1.21-.29,29.84-7,42.17-2.68,13.18,4.58,32.67,34.36,40.88,62.47,8.49,29-6.95,140.69-7.61,145.43a.66.66,0,0,1-.36.51A116.57,116.57,0,0,1,236.11,403.77Zm-57.32-14.13c4.38,2.2,59.15,28.44,113.53-1.51,1-7,15.78-116.55,7.61-144.49-8.87-30.36-28.43-57.53-40-61.55-11.82-4.1-40.52,2.52-41.38,2.72-1.17.34-52.7,15.66-62.73,41.81C145.92,252.44,177,382.33,178.79,389.64Z"></path><path class="cls-1" d="M268.08,397.41a.69.69,0,0,1-.7-.69c0-1.49-2.67-149.29-4.23-161-1.69-12.66-29.12-23.42-29.4-23.52a.7.7,0,0,1,.5-1.31c1.17.45,28.48,11.16,30.29,24.64,1.57,11.74,4.13,155,4.24,161.12a.7.7,0,0,1-.69.71Z"></path><path class="cls-2" d="M204.9,181.43l2.24,32.35S220.46,228,234,226.37c14.72-1.82,25.29-12.62,25.29-12.62l-2.05-22.66Z"></path><path class="cls-2" d="M231.73,227.2c-12.85,0-24.58-12.38-25.1-12.94a.68.68,0,0,1-.19-.43l-2.24-32.35a.68.68,0,0,1,.23-.57.74.74,0,0,1,.59-.17l52.35,9.66a.7.7,0,0,1,.57.62L260,213.68a.66.66,0,0,1-.2.55c-.44.45-10.91,11-25.7,12.83A18.79,18.79,0,0,1,231.73,227.2Zm-23.91-13.72c1.58,1.61,13.88,13.71,26.1,12.19,13.13-1.62,23-10.65,24.64-12.19l-2-21.8-50.93-9.4Z"></path><path class="cls-3" d="M269.15,252s-29.56,9.43-29.88,47.63,25.94,29.43,41.11,16.85,17.53-31.23,16.18-42.47S288,246.59,269.15,252Z"></path><path class="cls-2" d="M256.1,327.88a15.89,15.89,0,0,1-6.88-1.45C242,323,238.45,314,238.57,299.6c.32-38.26,30.07-48.19,30.37-48.29h0c6.77-1.93,12.62-1.31,17.38,1.85,8.49,5.65,10.5,17.32,10.91,20.76,1.56,13-1.94,31.08-16.42,43.08C274.12,322.56,264.51,327.88,256.1,327.88Zm13.26-75.23c-.64.21-29.08,10-29.39,47-.11,13.8,3.2,22.4,9.85,25.56,8.9,4.23,21.79-2.34,30.12-9.25,14-11.65,17.44-29.25,15.92-41.84-.39-3.29-2.3-14.45-10.3-19.76C281.16,251.4,275.71,250.83,269.36,252.65Z"></path><path class="cls-3" d="M289.37,284.34c-.54,11.25-12.11,27.7-20.2,30.84-4.95,1.92-11.57,3.56-15.88-1.19-2.73-3-4.53-8.65-4.36-18.44.45-25.15,19.15-32.12,24.48-33.24a11,11,0,0,1,7.15,1.31C285.33,266.16,289.94,272.32,289.37,284.34Z"></path><path class="cls-2" d="M260.79,317.78a10.4,10.4,0,0,1-8-3.32c-3.18-3.53-4.7-9.89-4.54-18.92.51-28.44,24-33.7,25-33.91a11.76,11.76,0,0,1,7.62,1.37c3.71,2,9.85,7.38,9.18,21.37h0c-.57,11.85-12.5,28.3-20.65,31.47A24.66,24.66,0,0,1,260.79,317.78ZM275,262.85a7,7,0,0,0-1.48.15c-1,.2-23.44,5.22-23.93,32.57-.15,8.66,1.25,14.7,4.18,17.95,4.12,4.55,10.6,2.76,15.1,1,7.71-3,19.23-19.13,19.76-30.23h0c.63-13.21-5-18.24-8.44-20.06A11.41,11.41,0,0,0,275,262.85Zm14.33,21.49h0Z"></path><path class="cls-2" d="M289.37,284.34c-.54,11.25-12.11,27.7-20.2,30.84-4.95,1.92-11.57,3.56-15.88-1.19,4.77.51,11.87-1.22,19.61-11.54,10.36-13.82,11.19-28.87,7.66-38.83C285.33,266.16,289.94,272.32,289.37,284.34Z"></path><path class="cls-2" d="M260.79,317.78a10.4,10.4,0,0,1-8-3.32.7.7,0,0,1-.11-.79.72.72,0,0,1,.7-.38c4.46.48,11.36-1.09,19-11.26,10.56-14.08,10.83-28.95,7.56-38.17a.7.7,0,0,1,.2-.77.72.72,0,0,1,.79-.09c3.71,2,9.85,7.38,9.18,21.37h0c-.57,11.85-12.5,28.3-20.65,31.47A24.66,24.66,0,0,1,260.79,317.78Zm-5.6-3c4.09,2.93,9.69,1.33,13.72-.23,7.71-3,19.23-19.13,19.76-30.23.54-11.33-3.53-16.64-6.87-19.07,2.73,9.62,1.87,24-8.34,37.64C266.47,312.19,259.94,314.63,255.19,314.76Zm34.18-30.42h0Z"></path><path class="cls-3" d="M133.45,278.94S136.6,374.19,146,381.38s28.8-.45,32.15-7.64S183,273.54,183,273.54Z"></path><path class="cls-2" d="M155.82,385a16.65,16.65,0,0,1-10.21-3c-4.08-3.11-7.48-21.42-10.1-54.42-1.95-24.45-2.75-48.32-2.76-48.56a.7.7,0,0,1,.63-.72l49.52-5.39a.7.7,0,0,1,.55.18.69.69,0,0,1,.23.53c-.06,3.8-1.49,93.24-4.86,100.48-1.89,4.07-8.38,8.18-15.79,10A30.49,30.49,0,0,1,155.82,385ZM134.18,279.56c.14,4,1,25.69,2.72,47.85,3.4,42.73,7.45,51.81,9.56,53.42,3.7,2.82,9.62,3.5,16.23,1.86,6.92-1.7,13.17-5.59,14.86-9.24,2.58-5.54,4.2-66.79,4.71-99.12Z"></path><path class="cls-3" d="M167.27,354.63c20.33-21.58,81.65-17.28,81.65-17.28l6.3,29.2s-51.23,24.08-77,23.57C165.54,389.87,154.8,367.86,167.27,354.63Z"></path><path class="cls-2" d="M179,390.83h-.82c-6.08-.12-12-5-15.15-12.43-2.85-6.78-3.36-16.71,3.74-24.24h0c8.55-9.08,25-14.78,48.89-16.95a235.06,235.06,0,0,1,33.32-.55.69.69,0,0,1,.63.55l6.31,29.21a.69.69,0,0,1-.39.78C255,367.43,204.91,390.83,179,390.83Zm57.69-53.11c-18.88,0-54.54,2.14-68.9,17.39h0c-6.65,7.05-6.15,16.37-3.47,22.74,2.86,6.81,8.44,11.47,13.89,11.57,24,.53,70.83-20.78,76.22-23.26L248.35,338C246.91,337.93,242.63,337.72,236.68,337.72Zm-69.41,16.91h0Z"></path><path class="cls-1" d="M171.58,380.6a.7.7,0,0,1-.14-1.39c.6-.11,59.66-11.88,78.18-23.81a.7.7,0,1,1,.76,1.18c-18.75,12.07-76.23,23.53-78.67,24Z"></path><path class="cls-2" d="M247.28,342s12.86-12.05,18.56-16.81,17.09-11.35,16.79-5.65-10.87,8.58-11.28,10.13c0,0,21.65-3.35,31.74,0s12.79,6,9.79,7.69-14.07-2.25-19.17-1.65-9.88,1.65-9.88,1.65,17.67,1,23.36,4.64,8.09,7.19,4.5,8.39-14.68-7.49-25.47-6c0,0,23.1,7.49,22.48,13.48s-3.12,5.09-5.61,3.59-14.5-6.61-19.9-7.51c0,0,24.62,19.8,18,21s-20.54-13.78-20.54-13.78-26.79,12.58-33.38,5.1S247.28,342,247.28,342Z"></path><path class="cls-2" d="M300.45,375.71c-6.56,0-17.79-11.43-19.95-13.7-3.73,1.7-27.3,12-33.74,4.71-6.8-7.72-.4-24.28-.13-25a.78.78,0,0,1,.17-.26c.13-.12,12.94-12.12,18.59-16.83,3.77-3.15,13.19-9.46,16.66-7.72a2.5,2.5,0,0,1,1.28,2.63c-.22,4.21-5.3,6.91-8.67,8.69l-.61.33c6.22-.79,21.19-2.26,29.26.41,11.14,3.7,11.35,6,11.42,6.74s-.16,1.49-1.51,2.23c-1.85,1-5.75.3-10.28-.54-3.41-.63-6.94-1.28-9.14-1-1.68.19-3.34.44-4.79.68,5.73.6,14.7,1.88,18.56,4.32,2.57,1.62,6.83,4.74,6.5,7.44-.09.7-.53,1.66-2.16,2.2s-4.31-.53-7.94-2.05c-4.09-1.72-9-3.77-14-4.05,6.69,2.44,20,7.94,19.44,13-.29,2.83-1,4.44-2.25,5.06s-2.94-.05-4.42-.94A103.7,103.7,0,0,0,286,355.34c17.1,14.1,17.14,18.24,17,19a1.84,1.84,0,0,1-1.64,1.34A5.14,5.14,0,0,1,300.45,375.71Zm-19.79-15.25a.68.68,0,0,1,.51.23c3.81,4.08,14.79,14.5,19.91,13.56.48-.08.52-.25.53-.31.63-2.45-10.65-12.84-18.86-19.44a.71.71,0,0,1-.2-.83.7.7,0,0,1,.76-.41c5.34.89,17.49,6,20.14,7.6,1.09.66,2.31,1.28,3.07.89.52-.26,1.2-1.16,1.49-3.95.4-4-13.28-9.92-22-12.75a.69.69,0,0,1-.48-.72.7.7,0,0,1,.6-.64c6.64-.92,13.43,1.93,18.38,4,3.09,1.29,5.76,2.42,7,2,.75-.25,1.15-.6,1.21-1,.12-1-1.34-3.23-5.86-6.09-5.47-3.45-22.86-4.52-23-4.53a.7.7,0,0,1-.11-1.39c.05,0,4.88-1.06,9.95-1.65,2.43-.29,6.06.38,9.57,1,3.72.69,7.93,1.47,9.35.69.37-.2.82-.52.79-.87s-.69-2.3-10.47-5.54-31.2,0-31.41,0a.74.74,0,0,1-.63-.22.73.73,0,0,1-.15-.65c.2-.77,1.16-1.31,3.33-2.46,3.08-1.64,7.74-4.11,7.92-7.53.05-1-.35-1.23-.51-1.31-2.14-1.08-9.89,3.17-15.13,7.54s-17.1,15.45-18.41,16.67c-.61,1.64-6,16.68-.07,23.4,2.5,2.84,8.87,2.86,18.42.06a112.41,112.41,0,0,0,14.13-5.32A.82.82,0,0,1,280.66,360.46Z"></path><path class="cls-3" d="M271.55,120.33s3.89,37.44,3,57.21-8.68,26.06-25.16,29.36-42.54-11.09-57.21-30-16.43-28.76-11.51-56.61Z"></path><path class="cls-2" d="M244.51,208.05c-16.21,0-39.14-13-52.9-30.68C177,158.64,175,148.48,180,120.2a.7.7,0,0,1,.69-.57h90.89a.69.69,0,0,1,.69.62c0,.38,3.89,37.73,3,57.32-1,21.1-9.78,26.82-25.72,30A25.29,25.29,0,0,1,244.51,208.05Zm-63.27-87c-4.83,27.64-2.84,37.07,11.48,55.48,15,19.23,40.84,32.84,56.52,29.7,15.25-3.05,23.69-8.53,24.6-28.7.83-18.1-2.42-51.5-2.93-56.48Z"></path><path class="cls-3" d="M180.66,120.33s3.12,12.88,34.87,15,56-6.29,56-15S249,103.55,226.1,103,182,112.23,180.66,120.33Z"></path><path class="cls-2" d="M225.56,136.34c-3.22,0-6.59-.11-10.08-.34-31.89-2.11-35.37-15-35.51-15.51a.66.66,0,0,1,0-.28c1.38-8.59,23-18.56,46.15-18,21.77.57,46.13,8.42,46.13,18.08,0,1.85-.95,3.68-2.82,5.44C263.63,131.19,247.86,136.34,225.56,136.34Zm-44.19-16.06c.21.61,1.32,3.36,5.37,6.29,4.27,3.08,12.74,7,28.84,8,26,1.72,46.27-3.66,52.89-9.86a6.25,6.25,0,0,0,2.38-4.41c0-8-21.76-16.07-44.77-16.68C204.08,103.05,182.89,112.43,181.37,120.28Zm-.71,0h0Z"></path><path class="cls-2" d="M197.69,176.13c5.3,2.08,17.77,2.61,16-14.24s-8.4-26.16-19.85-26.18-11.6,13.6-10.26,19S186.25,171.66,197.69,176.13Z"></path><path class="cls-2" d="M203.32,177.86a16.89,16.89,0,0,1-5.89-1.07h0c-10.57-4.14-12.79-14.09-14.12-20-.15-.69-.29-1.32-.44-1.88-1-3.93-1.14-11.44,2.45-16a10.14,10.14,0,0,1,8.45-3.84h0c11.57,0,18.68,9.29,20.55,26.8.7,6.64-.67,11.32-4.07,13.92A11.3,11.3,0,0,1,203.32,177.86Zm-5.38-2.38c2.55,1,7.83,1.93,11.5-.86,3-2.29,4.18-6.54,3.52-12.66-1.8-16.93-8.25-25.53-19.16-25.55h0a8.82,8.82,0,0,0-7.35,3.3c-3.25,4.15-3.07,11.29-2.19,14.82.15.57.29,1.22.45,1.91,1.26,5.68,3.38,15.18,13.26,19Z"></path><path class="cls-3" d="M207.14,166a6.13,6.13,0,0,1-4.26,3.75c-7.65,1.9-12.47-7.19-13.82-11.79s-.56-16.42,6.19-15.53a5.75,5.75,0,0,1,2.55.63,15.7,15.7,0,0,1,6.08,5.23C207.31,152.78,209.26,161.07,207.14,166Z"></path><path class="cls-2" d="M200.87,170.71c-6.4,0-10.9-7.18-12.49-12.55-.94-3.24-1-10.88,2.13-14.56a5.26,5.26,0,0,1,4.77-1.87,6.49,6.49,0,0,1,2.8.69,16.66,16.66,0,0,1,6.36,5.45c3.41,4.45,5.62,13.11,3.34,18.41h0a6.88,6.88,0,0,1-4.73,4.15A8.87,8.87,0,0,1,200.87,170.71Zm-6.34-27.63a3.76,3.76,0,0,0-2.95,1.43c-2.57,3-2.81,10-1.85,13.26,1.11,3.76,5.6,13.13,13,11.31a5.47,5.47,0,0,0,3.78-3.35h0c2.09-4.86,0-12.86-3.17-17a15.5,15.5,0,0,0-5.8-5,5.41,5.41,0,0,0-2.22-.57h-.14A4.7,4.7,0,0,0,194.53,143.08ZM207.14,166h0Z"></path><path class="cls-2" d="M180.66,120.33s4.43-28,30.79-32.15c22.82-3.63,52.16,7,60.1,32.15,0,0,3,17.07-42.84,16.77S180.66,120.33,180.66,120.33Z"></path><path class="cls-2" d="M229.88,137.8h-1.17c-45.91-.3-48.65-16.68-48.75-17.38a.67.67,0,0,1,0-.2c0-.29,4.83-28.51,31.38-32.73,23.68-3.77,52.93,7.4,60.87,32.62.05.24.6,3.63-2.6,7.42C265.62,132.24,255.5,137.8,229.88,137.8Zm-48.51-17.48c.3,1.29,4.63,15.8,47.35,16.08h1.18c25,0,34.77-5.26,38.59-9.72,2.81-3.28,2.38-6.12,2.37-6.24-6-19.15-29.89-36.25-59.3-31.57C186.88,92.79,181.72,118.36,181.37,120.32Z"></path><circle class="cls-2" cx="160.47" cy="263.72" r="37.35"></circle><path class="cls-2" d="M160.47,301.77a38.05,38.05,0,1,1,38.05-38A38.09,38.09,0,0,1,160.47,301.77Zm0-74.7a36.65,36.65,0,1,0,36.65,36.65A36.69,36.69,0,0,0,160.47,227.07Z"></path><ellipse class="cls-2" cx="249.44" cy="161.73" rx="3.65" ry="5.53"></ellipse><ellipse class="cls-2" cx="265.73" cy="152.43" rx="3.65" ry="5.53"></ellipse><path class="cls-2" d="M208,169.9a.69.69,0,0,1-.54-.25L188,146.14a.7.7,0,0,1,.09-1,.71.71,0,0,1,1,.09l19.51,23.52a.69.69,0,0,1-.54,1.14Z"></path><path class="cls-2" d="M378.88,251.65s-4.92.68-13.69-.74-13.25-6.59-13.47-16.7-3.15-23.35,0-26.84,16.17-11.8,16.84-7.76-8.31,9.37-8.76,12,2.92,4.63,2.7,10.25c0,0,4.9-25.39,16.38-28.08s12.6,3.37,9.68,5.39-8.13,2.47-9.68,4.94-2.68,12.13-2.68,12.13,11.91-18.87,19.32-14.6,7.64,9.66,4.05,9-7.64-1.73-9.89,1.49-5.39,8.39-5.39,8.39,13.52-8.09,17.54-6.06,7.62,8.39,2.68,8-9.66-.6-11.91,1.87-2.92,7.64-4.71,13S385.36,251.58,378.88,251.65Z"></path><path class="cls-2" d="M375.48,252.52a65.05,65.05,0,0,1-10.4-.92c-9.24-1.5-13.84-7.19-14.06-17.38-.08-3.19-.42-6.73-.75-10.14-.77-7.82-1.42-14.57.93-17.18,2.76-3.07,13.08-10,16.68-9a1.86,1.86,0,0,1,1.38,1.55c.46,2.77-2.67,5.74-5.42,8.35-1.58,1.49-3.2,3-3.35,3.87a5.08,5.08,0,0,0,.9,3,18.76,18.76,0,0,1,1.33,3.14c1.9-7.34,6.91-22.59,16-24.72,8.94-2.11,11.15,1.13,11.61,2.17a3.69,3.69,0,0,1-1.37,4.48,19.65,19.65,0,0,1-4.6,2c-2.12.75-4.12,1.45-4.89,2.68-.88,1.41-1.68,5.67-2.17,8.9,3.64-5.12,12.34-15.94,18.57-12.35,5.3,3.06,7.28,6.8,6.5,8.92a2.37,2.37,0,0,1-2.93,1.36l-.76-.14c-3.24-.62-6.59-1.28-8.42,1.35-1.26,1.81-2.82,4.25-3.93,6,4.21-2.31,12.52-6.38,15.82-4.73,2.91,1.46,6,5.41,5.37,7.75-.18.67-.81,1.75-3.06,1.59-5-.39-9.37-.52-11.34,1.64-1.42,1.57-2.2,4.45-3.11,7.78-.43,1.62-.89,3.28-1.46,5-.35,1-.65,2.21-1,3.45-1.31,5-2.93,11.24-8.64,11.33A29.18,29.18,0,0,1,375.48,252.52Zm-8.5-53.3c-3.15,0-12,5.57-14.75,8.62-1.93,2.14-1.24,9.24-.57,16.1.34,3.44.68,7,.76,10.25.21,9.54,4.3,14.63,12.89,16s13.42.74,13.47.74h.09c4.67,0,6-5.25,7.35-10.28.33-1.26.64-2.45,1-3.54.56-1.68,1-3.33,1.44-4.92.95-3.51,1.78-6.54,3.43-8.36,2.39-2.63,7.06-2.51,12.47-2.1.94.08,1.49-.11,1.61-.56.38-1.38-2-4.77-4.65-6.13-3-1.52-13.2,3.85-16.87,6a.69.69,0,0,1-.85-.1.71.71,0,0,1-.11-.86s3.19-5.22,5.42-8.43c2.35-3.37,6.33-2.61,9.84-1.92l.75.14c.5.1,1.15.09,1.36-.47.47-1.28-1.08-4.45-5.89-7.22-5.6-3.24-15.16,9.28-18.37,14.37a.73.73,0,0,1-.83.29.7.7,0,0,1-.46-.75c.05-.4,1.16-9.84,2.78-12.42,1-1.65,3.25-2.43,5.61-3.26a18.34,18.34,0,0,0,4.26-1.89,2.24,2.24,0,0,0,.89-2.75c-.72-1.64-3.73-2.85-10-1.38C368.13,197,363.23,221.74,363.19,222a.72.72,0,0,1-.77.57.7.7,0,0,1-.62-.73,12,12,0,0,0-1.66-6.51c-.68-1.33-1.26-2.47-1-3.83s1.79-2.78,3.76-4.66c2.38-2.25,5.34-5.06,5-7.1a.47.47,0,0,0-.38-.44A2,2,0,0,0,367,199.22Z"></path></g><g id="Front_Screens" data-name="Front Screens"><path class="cls-3" d="M119.5,335.26V266s38.72,25.58,96.58,19.88v67.5S178.19,364.93,119.5,335.26Z"></path><path class="cls-2" d="M195.92,356.24c-17,0-43.66-3.64-76.73-20.36a.7.7,0,0,1-.39-.62V266a.72.72,0,0,1,.37-.62.69.69,0,0,1,.72,0c.39.25,39.19,25.37,96.13,19.76a.72.72,0,0,1,.53.18.68.68,0,0,1,.23.52v67.5a.7.7,0,0,1-.49.67C216.12,354.13,208.84,356.24,195.92,356.24ZM120.2,334.83c53.94,27.14,90.54,19.23,95.18,18.05v-66.2c-51.73,4.85-88.51-15.4-95.18-19.4Z"></path><path class="cls-4" d="M299.7,295.16V196.23s87.14-3.28,123.17-38.65v102.2S386.84,288.6,299.7,295.16Z"></path><path class="cls-2" d="M299.7,295.86a.7.7,0,0,1-.7-.7V196.23a.7.7,0,0,1,.67-.7c.87,0,87.28-3.67,122.71-38.45a.7.7,0,0,1,1.19.5v102.2a.74.74,0,0,1-.26.55c-.37.29-37.2,29-123.56,35.52Zm.7-99v97.5c81.53-6.27,118.34-32.41,121.77-35V159.21C387.39,191.7,308.53,196.49,300.4,196.9Z"></path><path class="cls-4" d="M257.24,412.46V349.93s60.05-.45,102.92-32.61v64.32S320.92,414.24,257.24,412.46Z"></path><path class="cls-2" d="M262.22,413.23c-1.65,0-3.31,0-5-.07a.7.7,0,0,1-.68-.7V349.93a.7.7,0,0,1,.7-.7c.6,0,60.31-.82,102.5-32.47a.73.73,0,0,1,.74-.06.71.71,0,0,1,.38.62v64.32a.69.69,0,0,1-.25.54C360.23,382.5,322.52,413.23,262.22,413.23Zm-4.28-1.45C317.6,413.27,356,384,359.46,381.3V318.71c-40,29.29-94.73,31.72-101.52,31.9Z"></path></g></svg>